<svg id="BG" xmlns="http://www.w3.org/2000/svg" xmlns:xlink="http://www.w3.org/1999/xlink" width="1920" height="1149" viewBox="0 0 1920 1149">
  <defs>
    <clipPath id="clip-path">
      <rect id="Rectangle_3" data-name="Rectangle 3" width="1920" height="1149" fill="#fff" stroke="#707070" stroke-width="1"/>
    </clipPath>
  </defs>
  <rect id="BG-2" data-name="BG" width="1920" height="1149" fill="#252934"/>
  <g id="Mask_Group_1" data-name="Mask Group 1" opacity="0.099" clip-path="url(#clip-path)">
    <g id="Group_3" data-name="Group 3" transform="translate(-2706 733)">
      <path id="Path_3" data-name="Path 3" d="M527.386,0,491.38,551.1H0Z" transform="translate(2207.068 100.258) rotate(-90)" fill="#0a0d15"/>
      <g id="Path_4" data-name="Path 4" transform="translate(3933.332 -50.735) rotate(135)" fill="none">
        <path d="M154.869,0l401.2,1091.089L0,1026.4Z" stroke="none"/>
        <path d="M 157.71875 28.03271484375 L 8.002197265625 1020.284851074219 L 545.5700073242188 1082.820678710938 L 157.71875 28.03271484375 M 154.8691711425781 0 L 556.068603515625 1091.089233398438 L 0 1026.401245117188 L 154.8691711425781 0 Z" stroke="none" fill="#050810"/>
      </g>
      <path id="Path_5" data-name="Path 5" d="M595.41,0l55.221,476.077L0,355.143Z" transform="translate(2473.809 -912.139) rotate(22)" fill="#1c212e"/>
      <path id="Path_2" data-name="Path 2" d="M288.778,0,412.185,542.305,0,370.34Z" transform="translate(2953.76 352.927) rotate(-135)" fill="#181a21"/>
      <path id="Path_1" data-name="Path 1" d="M150.754,0l981.885,773.51L0,685.816Z" transform="translate(4186.768 548.533) rotate(157)" fill="#0f131d"/>
      <path id="Polygon_1" data-name="Polygon 1" d="M445.714,0,891.427,239.955H0Z" transform="translate(3811.183 -769.532) rotate(90)" fill="#252934"/>
      <g id="Path_6" data-name="Path 6" transform="translate(4174.131 436.197) rotate(157)" fill="none">
        <path d="M150.754,0l981.885,773.51L0,685.816Z" stroke="none"/>
        <path d="M 151.3881225585938 1.77276611328125 L 1.2236328125 684.9075317382812 L 1129.434448242188 772.2589721679688 L 151.3881225585938 1.77276611328125 M 150.75390625 6.103515625e-05 L 1132.638671875 773.510009765625 L 0 685.8157348632812 L 150.75390625 6.103515625e-05 Z" stroke="none" fill="#0f131d"/>
      </g>
      <g id="Path_7" data-name="Path 7" transform="matrix(-0.966, 0.259, -0.259, -0.966, 3854.813, 215.102)" fill="#0a0d15">
        <path d="M 550.8192749023438 1086.954956054688 L 4.001091480255127 1023.343139648438 L 156.2940673828125 14.01643943786621 L 550.8192749023438 1086.954956054688 Z" stroke="none"/>
        <path d="M 157.71875 28.03271484375 L 8.002197265625 1020.284851074219 L 545.5700073242188 1082.820678710938 L 157.71875 28.03271484375 M 154.8691711425781 0 L 556.068603515625 1091.089233398438 L 0 1026.401245117188 L 154.8691711425781 0 Z" stroke="none" fill="#050810"/>
      </g>
      <g id="Path_8" data-name="Path 8" transform="translate(2336.254 100.258) rotate(-90)" fill="none">
        <path d="M527.386,0,491.38,551.1H0Z" stroke="none"/>
        <path d="M 525.0323486328125 5.35260009765625 L 4.68218994140625 549.1038818359375 L 489.5069274902344 549.1038818359375 L 525.0323486328125 5.35260009765625 M 527.3862915039062 0 L 491.3804931640625 551.1038818359375 L 0 551.1038818359375 L 527.3862915039062 0 Z" stroke="none" fill="#0a0d15"/>
      </g>
      <path id="Path_9" data-name="Path 9" d="M527.386,0,491.38,551.1H0Z" transform="translate(4681.82 -1235.71) rotate(30)" fill="#0a0d15"/>
      <g id="Path_10" data-name="Path 10" transform="matrix(-0.259, -0.966, 0.966, -0.259, 3949.452, 334.775)" fill="none">
        <path d="M154.869,0l401.2,1091.089L0,1026.4Z" stroke="none"/>
        <path d="M 157.71875 28.03271484375 L 8.002197265625 1020.284851074219 L 545.5700073242188 1082.820678710938 L 157.71875 28.03271484375 M 154.8691711425781 0 L 556.068603515625 1091.089233398438 L 0 1026.401245117188 L 154.8691711425781 0 Z" stroke="none" fill="#050810"/>
      </g>
      <path id="Path_11" data-name="Path 11" d="M595.41,0l55.221,476.077L0,355.143Z" transform="matrix(-0.788, 0.616, -0.616, -0.788, 5425.212, -498.507)" fill="#1c212e"/>
      <path id="Path_12" data-name="Path 12" d="M288.778,0,412.185,542.305,0,370.34Z" transform="matrix(0.966, -0.259, 0.259, 0.966, 4089.656, -715.39)" fill="#181a21"/>
      <path id="Path_13" data-name="Path 13" d="M150.754,0l981.885,773.51L0,685.816Z" transform="matrix(0.122, -0.993, 0.993, 0.122, 3303.753, 254.624)" fill="#0f131d"/>
      <path id="Polygon_2" data-name="Polygon 2" d="M445.714,0,891.427,239.955H0Z" transform="translate(4633.023 588.39) rotate(-150)" fill="#252934"/>
      <g id="Path_14" data-name="Path 14" transform="matrix(0.122, -0.993, 0.993, 0.122, 3407.357, 299.847)" fill="none">
        <path d="M150.754,0l981.885,773.51L0,685.816Z" stroke="none"/>
        <path d="M 151.3881225585938 1.77276611328125 L 1.2236328125 684.9075317382812 L 1129.434448242188 772.2589721679688 L 151.3881225585938 1.77276611328125 M 150.75390625 6.103515625e-05 L 1132.638671875 773.510009765625 L 0 685.8157348632812 L 150.75390625 6.103515625e-05 Z" stroke="none" fill="#0f131d"/>
      </g>
      <g id="Path_15" data-name="Path 15" transform="matrix(0.259, -0.966, 0.966, 0.259, 3758.49, 133.857)" fill="#0a0d15">
        <path d="M 550.8192749023438 1086.954956054688 L 4.001091480255127 1023.343139648438 L 156.2940673828125 14.01643943786621 L 550.8192749023438 1086.954956054688 Z" stroke="none"/>
        <path d="M 157.71875 28.03271484375 L 8.002197265625 1020.284851074219 L 545.5700073242188 1082.820678710938 L 157.71875 28.03271484375 M 154.8691711425781 0 L 556.068603515625 1091.089233398438 L 0 1026.401245117188 L 154.8691711425781 0 Z" stroke="none" fill="#050810"/>
      </g>
      <g id="Path_16" data-name="Path 16" transform="translate(4617.227 -1123.831) rotate(30)" fill="none">
        <path d="M527.386,0,491.38,551.1H0Z" stroke="none"/>
        <path d="M 525.0323486328125 5.35260009765625 L 4.68218994140625 549.1038818359375 L 489.5069274902344 549.1038818359375 L 525.0323486328125 5.35260009765625 M 527.3862915039062 0 L 491.3804931640625 551.1038818359375 L 0 551.1038818359375 L 527.3862915039062 0 Z" stroke="none" fill="#0a0d15"/>
      </g>
    </g>
  </g>
</svg>
