<svg xmlns="http://www.w3.org/2000/svg" width="30.043" height="30.339" viewBox="0 0 30.043 30.339">
  <path id="github" d="M15.021.5A15.293,15.293,0,0,0,0,16.055,15.514,15.514,0,0,0,10.271,30.813c.751.146,1.026-.335,1.026-.748,0-.369-.013-1.348-.019-2.645-4.178.938-5.06-2.087-5.06-2.087a4.09,4.09,0,0,0-1.671-2.275c-1.361-.964.105-.944.105-.944a3.162,3.162,0,0,1,2.3,1.6,3.141,3.141,0,0,0,4.375,1.294,3.36,3.36,0,0,1,.951-2.08c-3.336-.389-6.842-1.727-6.842-7.686A6.119,6.119,0,0,1,6.984,11.07a5.713,5.713,0,0,1,.131-4.117s1.258-.417,4.131,1.595a13.694,13.694,0,0,1,7.511,0c2.854-2.012,4.112-1.595,4.112-1.595a5.872,5.872,0,0,1,.15,4.117,6.145,6.145,0,0,1,1.54,4.174c0,5.975-3.511,7.291-6.853,7.673a3.8,3.8,0,0,1,1.014,2.878c0,2.082-.019,3.754-.019,4.259,0,.408.263.894,1.033.739a15.463,15.463,0,0,0,10.31-14.738A15.3,15.3,0,0,0,15.021.5Z" transform="translate(0 -0.5)" fill="#f04848"/>
</svg>
