<svg id="instagram" xmlns="http://www.w3.org/2000/svg" width="26.076" height="27.629" viewBox="0 0 26.076 27.629">
  <path id="Path_22" data-name="Path 22" d="M26.459,8.123a10.621,10.621,0,0,0-.606-3.352,6.793,6.793,0,0,0-1.508-2.45A6.4,6.4,0,0,0,22.037.729,9.089,9.089,0,0,0,18.873.086C17.477.016,17.033,0,13.492,0S9.508.016,8.117.081A9.068,9.068,0,0,0,4.953.723a6.342,6.342,0,0,0-2.313,1.6,6.855,6.855,0,0,0-1.5,2.445A10.65,10.65,0,0,0,.531,8.118C.465,9.6.449,10.066.449,13.817s.015,4.221.076,5.694a10.62,10.62,0,0,0,.606,3.352,6.865,6.865,0,0,0,1.508,2.45,6.4,6.4,0,0,0,2.308,1.592,9.091,9.091,0,0,0,3.164.642c1.391.065,1.834.081,5.375.081s3.984-.016,5.375-.081a9.064,9.064,0,0,0,3.164-.642,6.881,6.881,0,0,0,3.816-4.043,10.657,10.657,0,0,0,.606-3.352c.061-1.474.076-1.943.076-5.694S26.52,9.6,26.459,8.123ZM24.11,19.4a7.966,7.966,0,0,1-.448,2.564,4.463,4.463,0,0,1-2.476,2.623,6.825,6.825,0,0,1-2.42.475c-1.376.065-1.788.081-5.268.081s-3.9-.016-5.268-.081a6.8,6.8,0,0,1-2.42-.475,4,4,0,0,1-1.5-1.031,4.329,4.329,0,0,1-.973-1.587,8,8,0,0,1-.448-2.564c-.061-1.457-.076-1.895-.076-5.581S2.829,9.7,2.89,8.247a7.962,7.962,0,0,1,.448-2.564A4.23,4.23,0,0,1,4.316,4.1a4.034,4.034,0,0,1,1.5-1.031,6.83,6.83,0,0,1,2.42-.475C9.61,2.526,10.023,2.51,13.5,2.51s3.9.016,5.268.081a6.8,6.8,0,0,1,2.42.475,4,4,0,0,1,1.5,1.031,4.328,4.328,0,0,1,.973,1.587,8,8,0,0,1,.448,2.564c.061,1.457.076,1.894.076,5.581S24.172,17.946,24.11,19.4Zm0,0" transform="translate(-0.449 0)" fill="#f04848"/>
  <path id="Path_23" data-name="Path 23" d="M131.649,124.5c-3.7,0-6.7,3.348-6.7,7.474s3,7.474,6.7,7.474,6.7-3.348,6.7-7.474S135.348,124.5,131.649,124.5Zm0,12.322A4.877,4.877,0,1,1,136,131.974,4.619,4.619,0,0,1,131.649,136.822Zm0,0" transform="translate(-118.606 -118.157)" fill="#f04848"/>
  <path id="Path_24" data-name="Path 24" d="M365.578,90.166a1.564,1.564,0,1,1-1.564-1.564A1.564,1.564,0,0,1,365.578,90.166Zm0,0" transform="translate(-344.005 -83.783)" fill="#f04848"/>
</svg>
