<svg xmlns="http://www.w3.org/2000/svg" width="27.727" height="29.275" viewBox="0 0 27.727 29.275">
  <path id="linkedin" d="M25.727,0H2A2.058,2.058,0,0,0,0,2.111V27.164a2.058,2.058,0,0,0,2,2.111H25.727a2.058,2.058,0,0,0,2-2.111V2.111A2.058,2.058,0,0,0,25.727,0ZM9.835,22.128H6.458V11.4H9.835ZM8.147,9.938H8.125A1.794,1.794,0,0,1,6.259,8.085a1.806,1.806,0,0,1,1.91-1.853,1.8,1.8,0,0,1,1.888,1.853A1.805,1.805,0,0,1,8.147,9.938Zm13.863,12.19H18.633V16.39c0-1.442-.489-2.425-1.711-2.425a1.862,1.862,0,0,0-1.732,1.3,2.568,2.568,0,0,0-.111.87v5.989H11.7s.044-9.719,0-10.725H15.08v1.519a3.329,3.329,0,0,1,3.043-1.77c2.221,0,3.887,1.533,3.887,4.827Zm0,0" fill="#f04848"/>
</svg>
