<svg xmlns="http://www.w3.org/2000/svg" width="27.727" height="24.076" viewBox="0 0 27.727 24.076">
  <path id="twitter" d="M27.727,50.85a11.262,11.262,0,0,1-3.275.959,5.986,5.986,0,0,0,2.5-3.358,10.927,10.927,0,0,1-3.6,1.47A5.532,5.532,0,0,0,19.2,48a5.888,5.888,0,0,0-5.681,6.076,6.67,6.67,0,0,0,.132,1.385A15.773,15.773,0,0,1,1.93,49.107a6.44,6.44,0,0,0-.778,3.071,6.2,6.2,0,0,0,2.525,5.049,5.34,5.34,0,0,1-2.568-.748v.067a6.017,6.017,0,0,0,4.554,5.969,5.33,5.33,0,0,1-1.49.2,4.713,4.713,0,0,1-1.076-.1,5.8,5.8,0,0,0,5.311,4.232A10.964,10.964,0,0,1,1.36,69.433,9.97,9.97,0,0,1,0,69.35a15.265,15.265,0,0,0,8.72,2.726c10.46,0,16.179-9.26,16.179-17.287,0-.269-.009-.528-.021-.785A11.8,11.8,0,0,0,27.727,50.85Z" transform="translate(0 -48)" fill="#f04848"/>
</svg>
