<svg xmlns="http://www.w3.org/2000/svg" width="30.035" height="22.578" viewBox="0 0 30.035 22.578">
  <path id="youtube" d="M29.416-2.549a3.911,3.911,0,0,0-2.647-2.842c-2.35-.69-11.752-.69-11.752-.69s-9.4,0-11.752.664A3.994,3.994,0,0,0,.619-2.549,45.633,45.633,0,0,0,0,5.207a45.465,45.465,0,0,0,.619,7.756A3.912,3.912,0,0,0,3.266,15.8c2.375.691,11.752.691,11.752.691s9.4,0,11.752-.664a3.911,3.911,0,0,0,2.648-2.842,45.648,45.648,0,0,0,.618-7.756A43.317,43.317,0,0,0,29.416-2.549ZM12.024,10.041V.373l7.818,4.834Zm0,0" transform="translate(0 6.082)" fill="#f04848"/>
</svg>
